<svg width="250" height="25" viewBox="0 0 250 25" fill="none" xmlns="http://www.w3.org/2000/svg">
<g clip-path="url(#clip0_1_99)">
<path d="M246.637 0.196426H212.123C210.318 0.196426 208.855 1.6595 208.855 3.46428V21.5913C208.855 23.3961 210.318 24.8591 212.123 24.8591H246.637C248.442 24.8591 249.905 23.3961 249.905 21.5913V3.46428C249.905 1.6595 248.442 0.196426 246.637 0.196426Z" fill="#F16F26"/>
<path d="M215.567 14.6151V14.5833C215.567 12.7123 216.99 11.8492 219.022 11.8492C219.885 11.8492 220.508 11.9941 221.117 12.2004V12.0575C221.117 11.0496 220.494 10.4901 219.278 10.4901C218.351 10.4901 217.694 10.6667 216.911 10.9544L216.304 9.09921C217.246 8.68453 218.175 8.4127 219.629 8.4127C220.956 8.4127 221.915 8.7639 222.524 9.37104C223.163 10.0099 223.45 10.9544 223.45 12.1052V17.0774H221.099V16.1508C220.508 16.8056 219.692 17.2381 218.51 17.2381C216.895 17.2381 215.567 16.3115 215.567 14.6171V14.6151ZM221.147 14.0556V13.623C220.732 13.4306 220.189 13.3036 219.595 13.3036C218.556 13.3036 217.917 13.7183 217.917 14.4861V14.5179C217.917 15.1726 218.46 15.5575 219.244 15.5575C220.379 15.5575 221.147 14.9345 221.147 14.0556Z" fill="#2E2E2E"/>
<path d="M226.01 12.8393V12.8075C226.01 10.3611 227.752 8.34723 230.248 8.34723C233.111 8.34723 234.421 10.5695 234.421 13C234.421 13.1925 234.405 13.4147 234.389 13.6389H228.425C228.665 14.7421 229.433 15.3175 230.52 15.3175C231.335 15.3175 231.927 15.0615 232.599 14.4385L233.99 15.6687C233.19 16.6607 232.04 17.2679 230.488 17.2679C227.915 17.2679 226.012 15.4603 226.012 12.8393H226.01ZM232.054 12.121C231.909 11.0337 231.27 10.2976 230.246 10.2976C229.222 10.2976 228.583 11.0179 228.391 12.121H232.052H232.054Z" fill="#2E2E2E"/>
<path d="M236.276 15.9425L237.315 14.3433C238.242 15.0139 239.218 15.3671 240.018 15.3671C240.722 15.3671 241.042 15.1111 241.042 14.7282V14.6964C241.042 14.1687 240.21 13.9921 239.268 13.7044C238.069 13.3532 236.71 12.7937 236.71 11.131V11.0992C236.71 9.35716 238.117 8.38097 239.843 8.38097C240.931 8.38097 242.113 8.74803 243.042 9.37303L242.115 11.0516C241.268 10.5556 240.421 10.252 239.798 10.252C239.175 10.252 238.903 10.508 238.903 10.8433V10.875C238.903 11.3552 239.718 11.5794 240.645 11.8988C241.843 12.2996 243.234 12.875 243.234 14.4405V14.4722C243.234 16.375 241.812 17.2381 239.956 17.2381C238.758 17.2381 237.415 16.8393 236.278 15.9425H236.276Z" fill="#2E2E2E"/>
<path d="M102.563 9.35317V15.7004C102.563 17.8909 104.339 19.6686 106.532 19.6686H117.367V16.252H106.776C106.337 16.252 105.982 15.8968 105.982 15.4583V14.4345C105.982 14.3254 106.071 14.2361 106.181 14.2361H114.349C116.236 14.2361 117.768 12.7063 117.768 10.8194V9.35516C117.768 7.16468 115.992 5.3869 113.8 5.3869H106.534C104.341 5.3869 102.565 7.1627 102.565 9.35516L102.563 9.35317ZM105.98 10.621V9.59722C105.98 9.15873 106.335 8.80357 106.774 8.80357H113.554C113.992 8.80357 114.347 9.15873 114.347 9.59722V10.0258C114.347 10.4643 113.992 10.8194 113.554 10.8194H106.179C106.069 10.8194 105.98 10.7302 105.98 10.621Z" fill="white"/>
<path d="M186.635 9.35317V15.7004C186.635 17.8909 188.411 19.6686 190.603 19.6686H201.439V16.252H190.847C190.409 16.252 190.054 15.8968 190.054 15.4583V14.4345C190.054 14.3254 190.143 14.2361 190.252 14.2361H198.421C200.308 14.2361 201.839 12.7063 201.839 10.8194V9.35516C201.839 7.16468 200.064 5.3869 197.871 5.3869H190.605C188.413 5.3869 186.637 7.1627 186.637 9.35516L186.635 9.35317ZM190.052 10.621V9.59722C190.052 9.15873 190.407 8.80357 190.845 8.80357H197.625C198.064 8.80357 198.419 9.15873 198.419 9.59722V10.0258C198.419 10.4643 198.064 10.8194 197.625 10.8194H190.25C190.141 10.8194 190.052 10.7302 190.052 10.621Z" fill="white"/>
<path d="M18.8889 5.38492V24.8571H22.3056V19.6667H30.1548C32.3472 19.6667 34.123 17.8909 34.123 15.6984V9.35119C34.123 7.16071 32.3472 5.38293 30.1548 5.38293H18.8869L18.8889 5.38492ZM29.9147 16.252H22.506C22.3968 16.252 22.3076 16.1627 22.3076 16.0536V9C22.3076 8.89087 22.3968 8.80159 22.506 8.80159H29.9147C30.3532 8.80159 30.7083 9.15674 30.7083 9.59524V15.4583C30.7083 15.8968 30.3532 16.252 29.9147 16.252Z" fill="white"/>
<path d="M141.099 9.35317V15.7004C141.099 17.8909 142.875 19.6686 145.067 19.6686H152.718C152.827 19.6686 152.917 19.7579 152.917 19.8671V20.6488C152.917 21.0873 152.562 21.4425 152.123 21.4425H141.524V24.8591H152.365C154.558 24.8591 156.333 23.0833 156.333 20.8909V5.38492H145.065C142.873 5.38492 141.097 7.16071 141.097 9.35317H141.099ZM152.718 16.252H145.31C144.871 16.252 144.516 15.8968 144.516 15.4583V9.59524C144.516 9.15674 144.871 8.80159 145.31 8.80159H152.718C152.827 8.80159 152.917 8.89087 152.917 9V16.0536C152.917 16.1627 152.827 16.252 152.718 16.252Z" fill="white"/>
<path d="M80.3076 8.80159V5.38492H76.1825V2.38293H72.7659V5.38492H70.5377V8.80159H72.7659V15.7004C72.7659 17.8909 74.5417 19.6686 76.7341 19.6686H80.3076V16.252H76.9762C76.5377 16.252 76.1825 15.8968 76.1825 15.4583V8.80159H80.3076Z" fill="white"/>
<path d="M37.1349 9.35317V15.7004C37.1349 17.8909 38.9107 19.6686 41.1032 19.6686H48.4028C50.5953 19.6686 52.371 17.8929 52.371 15.7004V9.35317C52.371 7.1627 50.5953 5.38492 48.4028 5.38492H41.1032C38.9107 5.38492 37.1349 7.16071 37.1349 9.35317ZM48.1587 16.252H41.3453C40.9068 16.252 40.5516 15.8968 40.5516 15.4583V9.59524C40.5516 9.15674 40.9068 8.80159 41.3453 8.80159H48.1587C48.5972 8.80159 48.9524 9.15674 48.9524 9.59524V15.4583C48.9524 15.8968 48.5972 16.252 48.1587 16.252Z" fill="white"/>
<path d="M121.984 5.38492V19.6686H125.401V8.80159H133.008C133.446 8.80159 133.802 9.15674 133.802 9.59524V19.6686H137.218V9.35317C137.218 7.1627 135.442 5.38492 133.25 5.38492H121.982H121.984Z" fill="white"/>
<path d="M167.55 5.38492V19.6686H170.966V8.80159H178.573C179.012 8.80159 179.367 9.15674 179.367 9.59524V19.6686H182.784V9.35317C182.784 7.1627 181.008 5.38492 178.815 5.38492H167.548H167.55Z" fill="white"/>
<path d="M163.639 5.38492H160.222V19.6686H163.639V5.38492Z" fill="white"/>
<path d="M163.639 0.196426H160.222V3.79365H163.639V0.196426Z" fill="white"/>
<path d="M55.7599 5.38492V19.6687H59.1766V9C59.1766 8.89087 59.2659 8.80159 59.375 8.80159H63.8988C64.3373 8.80159 64.6925 9.15674 64.6925 9.59524V11.4206H68.1091V9.35119C68.1091 7.16071 66.3333 5.38293 64.1409 5.38293H55.7579L55.7599 5.38492Z" fill="white"/>
<path d="M3.84922 10.0258V9.59722C3.84922 9.15873 4.20438 8.80357 4.64287 8.80357H15.2421V5.3869H4.4008C2.20834 5.3869 0.43255 7.1627 0.43255 9.35516V10.2698C0.43255 12.4603 2.20834 14.2381 4.4008 14.2381H11.4226C11.8611 14.2381 12.2163 14.5933 12.2163 15.0317V15.4603C12.2163 15.8988 11.8611 16.254 11.4226 16.254H0.825408V19.6706H11.2699C13.6806 19.6706 15.6349 17.7163 15.6349 15.3056V14.7877C15.6349 12.5972 13.8591 10.8194 11.6667 10.8194H4.64485C4.20636 10.8194 3.8512 10.4643 3.8512 10.0258H3.84922Z" fill="white"/>
<path d="M87.9226 10.0258V9.59722C87.9226 9.15873 88.2778 8.80357 88.7163 8.80357H99.3155V5.3869H88.4742C86.2818 5.3869 84.506 7.1627 84.506 9.35516V10.2698C84.506 12.4603 86.2818 14.2381 88.4742 14.2381H95.496C95.9345 14.2381 96.2897 14.5933 96.2897 15.0317V15.4603C96.2897 15.8988 95.9345 16.254 95.496 16.254H84.8988V19.6706H95.3433C97.754 19.6706 99.7084 17.7163 99.7084 15.3056V14.7877C99.7084 12.5972 97.9326 10.8194 95.7401 10.8194H88.7183C88.2798 10.8194 87.9246 10.4643 87.9246 10.0258H87.9226Z" fill="white"/>
</g>
<defs>
<clipPath id="clip0_1_99">
<rect width="250" height="25" fill="white"/>
</clipPath>
</defs>
</svg>
