<?xml version="1.0" encoding="UTF-8"?>
<svg id="Layer_2" data-name="Layer 2" xmlns="http://www.w3.org/2000/svg" viewBox="0 0 385.45 46.01">
  <defs>
    <style>
      .cls-1 {
        fill: #094886;
      }

      .cls-2 {
        fill: #e18b22;
      }
    </style>
  </defs>
  <path class="cls-1" d="m3.59,8.24c-.14-.29-.15-.53-.03-.71.12-.18.34-.27.66-.27h4.51c.48,0,.8.22.97.65l8.4,20.83L26.5,7.91c.17-.43.49-.65.97-.65h4.52c.32,0,.54.09.66.27.12.18.11.42-.03.71l-13.59,30.51c-.24.53-.55.8-.92.8s-.69-.27-.92-.8L3.59,8.24Z"/>
  <path class="cls-1" d="m53,39.49c-3.18,0-6.03-.68-8.55-2.05s-4.5-3.31-5.94-5.83c-1.44-2.52-2.16-5.39-2.16-8.61s.72-6.09,2.16-8.6c1.44-2.51,3.43-4.46,5.95-5.83s5.37-2.06,8.54-2.06,6.03.69,8.57,2.06c2.53,1.37,4.52,3.31,5.96,5.83,1.44,2.51,2.16,5.38,2.16,8.6,0,2.42-.42,4.66-1.26,6.72-.84,2.06-2,3.8-3.48,5.23s-3.24,2.54-5.3,3.34c-2.06.8-4.28,1.2-6.66,1.2Zm-10.88-16.49c0,2.18.48,4.13,1.43,5.83.95,1.7,2.25,3.01,3.91,3.93,1.65.92,3.5,1.38,5.54,1.38,3.14,0,5.74-1.03,7.81-3.09,2.07-2.06,3.11-4.74,3.11-8.04s-1.04-5.99-3.11-8.04c-2.07-2.06-4.68-3.09-7.81-3.09s-5.73,1.03-7.79,3.09-3.09,4.74-3.09,8.04Z"/>
  <path class="cls-1" d="m77.93,38.76c-.56,0-.84-.28-.84-.84V8.1c0-.56.28-.84.84-.84h4.09c.56,0,.84.28.84.84v25.56h9.39c.56,0,.84.28.84.84v3.42c0,.56-.28.84-.84.84h-14.32Z"/>
  <path class="cls-1" d="m100.14,38.76c-.56,0-.84-.28-.84-.84V8.1c0-.56.28-.84.84-.84h4.09c.56,0,.84.28.84.84v25.56h9.39c.56,0,.84.28.84.84v3.42c0,.56-.28.84-.84.84h-14.32Z"/>
  <path class="cls-1" d="m122.36,38.76c-.56,0-.84-.28-.84-.84V8.1c0-.56.28-.84.84-.84h16.99c.56,0,.84.28.84.84v3.42c0,.56-.28.84-.84.84h-12.05v11.13h10.42c.56,0,.84.28.84.84v3.21c0,.56-.28.84-.84.84h-10.42v5.27h12.05c.56,0,.84.28.84.84v3.42c0,.56-.28.84-.84.84h-16.99Z"/>
  <path class="cls-1" d="m156.99,38.76c-.56,0-.84-.28-.84-.84v-12.94l-10.98-16.72c-.18-.28-.22-.52-.12-.71s.33-.29.66-.29h5.02c.43,0,.77.19,1.01.57l7.31,11.78,7.35-11.78c.24-.38.58-.57,1.03-.57h5.02c.34,0,.56.1.66.29s.07.43-.12.71l-11.07,16.7v12.96c0,.56-.28.84-.84.84h-4.09Z"/>
  <path class="cls-1" d="m179.96,38.76c-.56,0-.84-.28-.84-.84V8.1c0-.56.28-.84.84-.84h10.02c1.85,0,3.45.21,4.8.62,1.35.41,2.42,1,3.19,1.76s1.34,1.62,1.7,2.57c.36.95.54,2.03.54,3.23,0,1.55-.33,2.95-1,4.19-.67,1.24-1.64,2.23-2.93,2.97,1.15.41,2.1,1,2.87,1.78.76.78,1.31,1.61,1.64,2.51.33.9.49,1.86.49,2.9,0,.94-.1,1.82-.29,2.64-.2.82-.55,1.62-1.05,2.42s-1.15,1.47-1.94,2.04c-.79.57-1.82,1.02-3.1,1.37-1.27.34-2.74.51-4.39.51h-10.54Zm4.93-18.38h5.63c1.61,0,2.75-.36,3.41-1.07s1-1.73,1-3.04-.37-2.23-1.11-2.9c-.74-.67-2.07-1.01-3.97-1.01h-4.96v8.02Zm0,13.27h5.46c1.04,0,1.91-.12,2.61-.36.71-.24,1.24-.58,1.59-1.02.35-.44.59-.91.73-1.4s.21-1.05.21-1.68c0-2.83-1.63-4.24-4.89-4.24h-5.71v8.69Z"/>
  <path class="cls-1" d="m207.07,38.76c-.31,0-.52-.09-.64-.27-.12-.18-.12-.42.01-.71l13.59-30.51c.24-.53.55-.8.92-.8s.69.27.92.8l13.59,30.51c.13.29.13.53.01.71-.12.18-.33.27-.64.27h-4.52c-.48,0-.8-.22-.97-.65l-1.79-4.43h-13.23l-1.78,4.43c-.17.43-.49.65-.97.65h-4.52Zm9.14-9.7h9.49l-4.75-11.78-4.75,11.78Z"/>
  <path class="cls-1" d="m242.54,38.76c-.56,0-.84-.28-.84-.84V8.1c0-.56.28-.84.84-.84h4.09c.56,0,.84.28.84.84v25.56h9.39c.56,0,.84.28.84.84v3.42c0,.56-.28.84-.84.84h-14.32Z"/>
  <path class="cls-1" d="m264.76,38.76c-.56,0-.84-.28-.84-.84V8.1c0-.56.28-.84.84-.84h4.09c.56,0,.84.28.84.84v25.56h9.39c.56,0,.84.28.84.84v3.42c0,.56-.28.84-.84.84h-14.32Z"/>
  <path class="cls-2" d="m302.01,38.76c-.56,0-.84-.28-.84-.84V8.1c0-.56.28-.84.84-.84h4.09c.56,0,.84.28.84.84v25.56h9.39c.56,0,.84.28.84.84v3.42c0,.56-.28.84-.84.84h-14.32Z"/>
  <path class="cls-2" d="m324.23,38.76c-.56,0-.84-.28-.84-.84V8.1c0-.56.28-.84.84-.84h4.09c.56,0,.84.28.84.84v29.82c0,.56-.28.84-.84.84h-4.09Z"/>
  <path class="cls-2" d="m338.66,38.76c-.56,0-.84-.28-.84-.84V8.1c0-.56.28-.84.84-.84h16.99c.56,0,.84.28.84.84v3.42c0,.56-.28.84-.84.84h-12.05v11.13h10.48c.56,0,.84.28.84.84v3.21c0,.56-.28.84-.84.84h-10.48v9.53c0,.56-.28.84-.84.84h-4.09Z"/>
  <path class="cls-2" d="m364.15,38.76c-.56,0-.84-.28-.84-.84V8.1c0-.56.28-.84.84-.84h16.99c.56,0,.84.28.84.84v3.42c0,.56-.28.84-.84.84h-12.05v11.13h10.42c.56,0,.84.28.84.84v3.21c0,.56-.28.84-.84.84h-10.42v5.27h12.05c.56,0,.84.28.84.84v3.42c0,.56-.28.84-.84.84h-16.99Z"/>
</svg>